<svg xmlns="http://www.w3.org/2000/svg" width="32" height="33" fill="none" viewBox="0 0 32 33"><path stroke="#343330" stroke-miterlimit="10" stroke-width="2" d="M16 28.5c6.627 0 12-5.373 12-12s-5.373-12-12-12-12 5.373-12 12 5.373 12 12 12Z"/><path fill="#343330" d="M11.5 15.5a1.5 1.5 0 1 0 0-3 1.5 1.5 0 0 0 0 3M20.5 15.5a1.5 1.5 0 1 0 0-3 1.5 1.5 0 0 0 0 3"/><path stroke="#343330" stroke-linecap="round" stroke-linejoin="round" stroke-width="2" d="M21 22.5c-1.038-1.794-2.779-3-5-3s-3.963 1.206-5 3"/></svg>